G04*
G04 #@! TF.GenerationSoftware,Altium Limited,Altium Designer,24.7.2 (38)*
G04*
G04 Layer_Color=8388736*
%FSAX44Y44*%
%MOMM*%
G71*
G04*
G04 #@! TF.SameCoordinates,24FF2C46-A417-480C-89B1-4EDC075265FB*
G04*
G04*
G04 #@! TF.FilePolarity,Negative*
G04*
G01*
G75*
%ADD18R,1.7032X1.7032*%
%ADD19R,1.3032X1.6032*%
%ADD20R,1.6032X1.6032*%
%ADD21C,3.2032*%
%ADD22R,1.7112X1.7112*%
%ADD23C,1.7112*%
%ADD24R,1.7272X1.7272*%
%ADD25C,1.7272*%
%ADD26C,2.1082*%
%ADD27C,1.4732*%
D18*
X00374500Y00256000D02*
D03*
Y00224000D02*
D03*
X00325500D02*
D03*
Y00256000D02*
D03*
D19*
X00353000Y00335000D02*
D03*
X00335000D02*
D03*
Y00305000D02*
D03*
X00353000D02*
D03*
X00401000Y00105000D02*
D03*
X00419000D02*
D03*
X00446000D02*
D03*
X00464000D02*
D03*
X00491000D02*
D03*
X00509000D02*
D03*
X00535000D02*
D03*
X00553000D02*
D03*
D20*
X00419000Y00035000D02*
D03*
X00491000D02*
D03*
X00054000D02*
D03*
X00126000D02*
D03*
X00299000D02*
D03*
X00371000D02*
D03*
X00179000D02*
D03*
X00251000D02*
D03*
D21*
X00630000Y00360000D02*
D03*
Y00020000D02*
D03*
X00020000D02*
D03*
Y00360000D02*
D03*
X00060000Y00325000D02*
D03*
X00280000D02*
D03*
Y00105000D02*
D03*
X00060000D02*
D03*
D22*
X00131900Y00330000D02*
D03*
D23*
X00157300D02*
D03*
X00182700D02*
D03*
X00208100D02*
D03*
D24*
X00600000Y00075000D02*
D03*
D25*
Y00100000D02*
D03*
D26*
X00561200Y00349000D02*
D03*
Y00323600D02*
D03*
Y00298200D02*
D03*
Y00272800D02*
D03*
Y00247400D02*
D03*
Y00222000D02*
D03*
Y00196600D02*
D03*
Y00171200D02*
D03*
X00408800D02*
D03*
Y00196600D02*
D03*
Y00222000D02*
D03*
Y00247400D02*
D03*
Y00272800D02*
D03*
Y00298200D02*
D03*
Y00323600D02*
D03*
Y00349000D02*
D03*
D27*
X00371358Y00082958D02*
D03*
X00397976Y00061976D02*
D03*
X00509000Y00081788D02*
D03*
X00369570Y00336550D02*
D03*
M02*
