G04*
G04 #@! TF.GenerationSoftware,Altium Limited,Altium Designer,24.7.2 (38)*
G04*
G04 Layer_Color=16711935*
%FSAX44Y44*%
%MOMM*%
G71*
G04*
G04 #@! TF.SameCoordinates,24FF2C46-A417-480C-89B1-4EDC075265FB*
G04*
G04*
G04 #@! TF.FilePolarity,Positive*
G04*
G01*
G75*
%ADD10C,0.2000*%
%ADD12C,0.1270*%
%ADD13C,0.1000*%
G36*
X00375000Y00215000D02*
X00365000D01*
X00375000Y00225000D01*
Y00215000D01*
D02*
G37*
D10*
X00312500Y00257300D02*
G03*
X00312500Y00257300I-00001000J00000000D01*
G01*
X00131000Y00350000D02*
G03*
X00131000Y00350000I-00001000J00000000D01*
G01*
D12*
X00325000Y00215000D02*
Y00265000D01*
Y00215000D02*
X00375000D01*
Y00265000D01*
X00325000D02*
X00375000D01*
X00040000Y00345000D02*
X00300000D01*
Y00085000D02*
Y00345000D01*
X00240000Y00085000D02*
X00300000D01*
X00040000D02*
X00100000D01*
X00040000D02*
Y00345000D01*
X00100000Y00085000D02*
Y00105000D01*
X00240000D01*
Y00085000D02*
Y00105000D01*
X00395000Y00363500D02*
X00440000D01*
Y00376500D01*
X00530000Y00363500D02*
Y00376500D01*
X00440000D02*
X00530000D01*
X00395000Y00136500D02*
Y00363500D01*
X00530000D02*
X00575000D01*
Y00136500D02*
Y00363500D01*
X00395000Y00136500D02*
X00575000D01*
D13*
X00333000Y00328000D02*
X00355000D01*
X00333000Y00342000D02*
X00355000D01*
Y00328000D02*
Y00342000D01*
X00333000Y00328000D02*
Y00342000D01*
Y00298000D02*
Y00312000D01*
X00355000Y00298000D02*
Y00312000D01*
X00333000D02*
X00355000D01*
X00333000Y00298000D02*
X00355000D01*
X00399000Y00098000D02*
Y00112000D01*
X00421000Y00098000D02*
Y00112000D01*
X00399000D02*
X00421000D01*
X00399000Y00098000D02*
X00421000D01*
X00444000D02*
Y00112000D01*
X00466000Y00098000D02*
Y00112000D01*
X00444000D02*
X00466000D01*
X00444000Y00098000D02*
X00466000D01*
X00489000D02*
Y00112000D01*
X00511000Y00098000D02*
Y00112000D01*
X00489000D02*
X00511000D01*
X00489000Y00098000D02*
X00511000D01*
X00533000D02*
Y00112000D01*
X00555000Y00098000D02*
Y00112000D01*
X00533000D02*
X00555000D01*
X00533000Y00098000D02*
X00555000D01*
M02*
