G04*
G04 #@! TF.GenerationSoftware,Altium Limited,Altium Designer,24.7.2 (38)*
G04*
G04 Layer_Color=255*
%FSAX44Y44*%
%MOMM*%
G71*
G04*
G04 #@! TF.SameCoordinates,24FF2C46-A417-480C-89B1-4EDC075265FB*
G04*
G04*
G04 #@! TF.FilePolarity,Positive*
G04*
G01*
G75*
%ADD15R,1.5000X1.5000*%
%ADD16R,1.1000X1.4000*%
%ADD17R,1.4000X1.4000*%
%ADD28C,3.0000*%
%ADD29R,1.5080X1.5080*%
%ADD30C,1.5080*%
%ADD31R,1.5240X1.5240*%
%ADD32C,1.5240*%
%ADD33C,1.9050*%
D15*
X00374500Y00256000D02*
D03*
Y00224000D02*
D03*
X00325500D02*
D03*
Y00256000D02*
D03*
D16*
X00353000Y00335000D02*
D03*
X00335000D02*
D03*
Y00305000D02*
D03*
X00353000D02*
D03*
X00401000Y00105000D02*
D03*
X00419000D02*
D03*
X00446000D02*
D03*
X00464000D02*
D03*
X00491000D02*
D03*
X00509000D02*
D03*
X00535000D02*
D03*
X00553000D02*
D03*
D17*
X00419000Y00035000D02*
D03*
X00491000D02*
D03*
X00054000D02*
D03*
X00126000D02*
D03*
X00299000D02*
D03*
X00371000D02*
D03*
X00179000D02*
D03*
X00251000D02*
D03*
D28*
X00630000Y00360000D02*
D03*
Y00020000D02*
D03*
X00020000D02*
D03*
Y00360000D02*
D03*
X00060000Y00325000D02*
D03*
X00280000D02*
D03*
Y00105000D02*
D03*
X00060000D02*
D03*
D29*
X00131900Y00330000D02*
D03*
D30*
X00157300D02*
D03*
X00182700D02*
D03*
X00208100D02*
D03*
D31*
X00600000Y00075000D02*
D03*
D32*
Y00100000D02*
D03*
D33*
X00561200Y00349000D02*
D03*
Y00323600D02*
D03*
Y00298200D02*
D03*
Y00272800D02*
D03*
Y00247400D02*
D03*
Y00222000D02*
D03*
Y00196600D02*
D03*
Y00171200D02*
D03*
X00408800D02*
D03*
Y00196600D02*
D03*
Y00222000D02*
D03*
Y00247400D02*
D03*
Y00272800D02*
D03*
Y00298200D02*
D03*
Y00323600D02*
D03*
Y00349000D02*
D03*
M02*
