G04*
G04 #@! TF.GenerationSoftware,Altium Limited,Altium Designer,24.7.2 (38)*
G04*
G04 Layer_Physical_Order=1*
G04 Layer_Color=255*
%FSAX44Y44*%
%MOMM*%
G71*
G04*
G04 #@! TF.SameCoordinates,24FF2C46-A417-480C-89B1-4EDC075265FB*
G04*
G04*
G04 #@! TF.FilePolarity,Positive*
G04*
G01*
G75*
%ADD11C,0.2540*%
%ADD15R,1.5000X1.5000*%
%ADD16R,1.1000X1.4000*%
%ADD17R,1.4000X1.4000*%
%ADD28C,3.0000*%
%ADD29R,1.5080X1.5080*%
%ADD30C,1.5080*%
%ADD31R,1.5240X1.5240*%
%ADD32C,1.5240*%
%ADD33C,1.9050*%
%ADD34C,1.2700*%
D11*
X00419000Y00098298D02*
X00427702D01*
X00481084Y00148208D02*
X00502617D01*
X00398780Y00157480D02*
X00408052Y00148208D01*
X00358110Y00198150D02*
X00398780Y00157480D01*
X00395478Y00115824D02*
X00403860D01*
X00353000Y00336550D02*
X00369570D01*
X00168130Y00024130D02*
X00179000Y00035000D01*
X00115062Y00024130D02*
X00168130D01*
X00115062D02*
Y00096062D01*
X00131900Y00112900D01*
Y00330000D01*
X00054000Y00035000D02*
X00115062Y00096062D01*
X00446000Y00105000D02*
Y00115824D01*
X00337058Y00174244D02*
X00395478Y00115824D01*
X00337058Y00174244D02*
Y00244442D01*
X00325500Y00256000D02*
X00337058Y00244442D01*
X00401000Y00105000D02*
Y00112964D01*
X00403860Y00115824D01*
X00446000D01*
X00535000Y00297400D02*
X00561200Y00323600D01*
X00535000Y00275155D02*
Y00297400D01*
X00417325Y00157480D02*
X00535000Y00275155D01*
X00398780Y00157480D02*
X00417325D01*
X00353000Y00289814D02*
X00358110Y00284704D01*
Y00198150D02*
Y00284704D01*
X00502617Y00148208D02*
X00535000Y00115824D01*
Y00105000D02*
Y00115824D01*
X00491000Y00105000D02*
Y00138291D01*
X00481084Y00148208D02*
X00491000Y00138291D01*
X00408052Y00148208D02*
X00481084D01*
X00353000Y00289814D02*
Y00305000D01*
X00600000Y00075000D02*
X00630000Y00045000D01*
Y00020000D02*
Y00045000D01*
X00126000Y00035000D02*
Y00078756D01*
X00321564Y00274320D01*
X00341884D01*
X00352806Y00263398D01*
Y00169622D02*
Y00263398D01*
Y00169622D02*
X00400000Y00122428D01*
X00458412D01*
X00464000Y00116840D01*
Y00105000D02*
Y00116840D01*
X00039000Y00020000D02*
X00054000Y00035000D01*
X00020000Y00020000D02*
X00039000D01*
X00363190Y00235310D02*
X00374500Y00224000D01*
X00363190Y00235310D02*
Y00315184D01*
X00379730Y00331724D01*
Y00342900D01*
X00375920Y00346710D02*
X00379730Y00342900D01*
X00174010Y00346710D02*
X00375920D01*
X00157300Y00330000D02*
X00174010Y00346710D01*
X00561200Y00349000D02*
X00600000Y00310200D01*
Y00100000D02*
Y00310200D01*
X00427702Y00098298D02*
X00491000Y00035000D01*
X00419000Y00098298D02*
Y00105000D01*
X00491000Y00035000D02*
X00536396D01*
X00562356Y00060960D01*
Y00145796D01*
X00547865Y00160287D02*
X00562356Y00145796D01*
X00547865Y00160287D02*
Y00208665D01*
X00561200Y00222000D01*
X00251000Y00035000D02*
X00298958Y00082958D01*
X00371358D01*
X00542785Y00254385D02*
X00561200Y00272800D01*
X00542785Y00152785D02*
Y00254385D01*
Y00152785D02*
X00553000Y00142570D01*
Y00105000D02*
Y00142570D01*
X00179000Y00035000D02*
X00189870Y00024130D01*
X00288130D01*
X00299000Y00035000D01*
X00309870Y00024130D01*
X00408130D01*
X00419000Y00035000D01*
Y00060960D01*
X00401000Y00078960D02*
X00419000Y00060960D01*
X00401000Y00078960D02*
Y00105000D01*
X00446000Y00096520D02*
Y00105000D01*
Y00096520D02*
X00451080Y00091440D01*
X00485920D01*
X00491000Y00096520D01*
Y00105000D01*
X00547624Y00337176D02*
X00561200Y00323600D01*
X00547624Y00337176D02*
Y00359156D01*
X00553720Y00365252D01*
X00576326D01*
X00611632Y00329946D01*
Y00086632D02*
Y00329946D01*
X00600000Y00075000D02*
X00611632Y00086632D01*
X00371000Y00035000D02*
X00397976Y00061976D01*
X00509000Y00081788D02*
Y00105000D01*
X00353000Y00335000D02*
Y00336550D01*
X00335000Y00305000D02*
Y00335000D01*
X00374500Y00256000D02*
Y00314700D01*
X00408800Y00349000D01*
D15*
X00374500Y00256000D02*
D03*
Y00224000D02*
D03*
X00325500D02*
D03*
Y00256000D02*
D03*
D16*
X00353000Y00335000D02*
D03*
X00335000D02*
D03*
Y00305000D02*
D03*
X00353000D02*
D03*
X00401000Y00105000D02*
D03*
X00419000D02*
D03*
X00446000D02*
D03*
X00464000D02*
D03*
X00491000D02*
D03*
X00509000D02*
D03*
X00535000D02*
D03*
X00553000D02*
D03*
D17*
X00419000Y00035000D02*
D03*
X00491000D02*
D03*
X00054000D02*
D03*
X00126000D02*
D03*
X00299000D02*
D03*
X00371000D02*
D03*
X00179000D02*
D03*
X00251000D02*
D03*
D28*
X00630000Y00360000D02*
D03*
Y00020000D02*
D03*
X00020000D02*
D03*
Y00360000D02*
D03*
X00060000Y00325000D02*
D03*
X00280000D02*
D03*
Y00105000D02*
D03*
X00060000D02*
D03*
D29*
X00131900Y00330000D02*
D03*
D30*
X00157300D02*
D03*
X00182700D02*
D03*
X00208100D02*
D03*
D31*
X00600000Y00075000D02*
D03*
D32*
Y00100000D02*
D03*
D33*
X00561200Y00349000D02*
D03*
Y00323600D02*
D03*
Y00298200D02*
D03*
Y00272800D02*
D03*
Y00247400D02*
D03*
Y00222000D02*
D03*
Y00196600D02*
D03*
Y00171200D02*
D03*
X00408800D02*
D03*
Y00196600D02*
D03*
Y00222000D02*
D03*
Y00247400D02*
D03*
Y00272800D02*
D03*
Y00298200D02*
D03*
Y00323600D02*
D03*
Y00349000D02*
D03*
D34*
X00371358Y00082958D02*
D03*
X00397976Y00061976D02*
D03*
X00509000Y00081788D02*
D03*
X00369570Y00336550D02*
D03*
M02*
