G04*
G04 #@! TF.GenerationSoftware,Altium Limited,Altium Designer,24.7.2 (38)*
G04*
G04 Layer_Color=32768*
%FSAX44Y44*%
%MOMM*%
G71*
G04*
G04 #@! TF.SameCoordinates,24FF2C46-A417-480C-89B1-4EDC075265FB*
G04*
G04*
G04 #@! TF.FilePolarity,Positive*
G04*
G01*
G75*
%ADD13C,0.1000*%
%ADD35C,0.0500*%
D13*
X00344000Y00330000D02*
Y00340000D01*
X00339000Y00335000D02*
X00349000D01*
X00339000Y00305000D02*
X00349000D01*
X00344000Y00300000D02*
Y00310000D01*
X00405000Y00105000D02*
X00415000D01*
X00410000Y00100000D02*
Y00110000D01*
X00450000Y00105000D02*
X00460000D01*
X00455000Y00100000D02*
Y00110000D01*
X00495000Y00105000D02*
X00505000D01*
X00500000Y00100000D02*
Y00110000D01*
X00539000Y00105000D02*
X00549000D01*
X00544000Y00100000D02*
Y00110000D01*
D35*
X00315500Y00212500D02*
Y00267500D01*
Y00212500D02*
X00384500D01*
Y00267500D01*
X00315500D02*
X00384500D01*
X00037500Y00347500D02*
X00302500D01*
Y00082500D02*
Y00347500D01*
X00037500Y00082500D02*
X00302500D01*
X00037500D02*
Y00347500D01*
X00327000Y00325500D02*
X00361000D01*
X00327000Y00344500D02*
X00361000D01*
Y00325500D02*
Y00344500D01*
X00327000Y00325500D02*
Y00344500D01*
Y00295500D02*
Y00314500D01*
X00361000Y00295500D02*
Y00314500D01*
X00327000D02*
X00361000D01*
X00327000Y00295500D02*
X00361000D01*
X00392500Y00134000D02*
Y00379000D01*
Y00134000D02*
X00577500D01*
Y00379000D01*
X00392500D02*
X00577500D01*
X00393000Y00095500D02*
Y00114500D01*
X00427000Y00095500D02*
Y00114500D01*
X00393000D02*
X00427000D01*
X00393000Y00095500D02*
X00427000D01*
X00438000D02*
Y00114500D01*
X00472000Y00095500D02*
Y00114500D01*
X00438000D02*
X00472000D01*
X00438000Y00095500D02*
X00472000D01*
X00483000D02*
Y00114500D01*
X00517000Y00095500D02*
Y00114500D01*
X00483000D02*
X00517000D01*
X00483000Y00095500D02*
X00517000D01*
X00527000D02*
Y00114500D01*
X00561000Y00095500D02*
Y00114500D01*
X00527000D02*
X00561000D01*
X00527000Y00095500D02*
X00561000D01*
M02*
