G04*
G04 #@! TF.GenerationSoftware,Altium Limited,Altium Designer,24.7.2 (38)*
G04*
G04 Layer_Color=2752767*
%FSAX44Y44*%
%MOMM*%
G71*
G04*
G04 #@! TF.SameCoordinates,24FF2C46-A417-480C-89B1-4EDC075265FB*
G04*
G04*
G04 #@! TF.FilePolarity,Positive*
G04*
G01*
G75*
%ADD12C,0.1270*%
%ADD36C,0.1693*%
D12*
X00126820Y00324920D02*
Y00335080D01*
X00136980D01*
Y00324920D01*
X00126820D01*
X00152220D02*
Y00335080D01*
X00162380D01*
Y00324920D01*
X00152220D01*
X00177620D02*
Y00335080D01*
X00187780D01*
Y00324920D01*
X00177620D01*
X00203020D02*
Y00335080D01*
X00213180D01*
Y00324920D01*
X00203020D01*
X00600000Y00069920D02*
X00594920Y00080080D01*
X00605080D01*
X00600000Y00069920D01*
Y00094920D02*
X00594920Y00105080D01*
X00605080D01*
X00600000Y00094920D01*
X00561200Y00343920D02*
X00563740Y00346460D01*
X00566280D01*
X00563740Y00349000D01*
X00566280Y00351540D01*
X00563740D01*
X00561200Y00354080D01*
X00558660Y00351540D01*
X00556120D01*
X00558660Y00349000D01*
X00556120Y00346460D01*
X00558660D01*
X00561200Y00343920D01*
Y00318520D02*
X00563740Y00321060D01*
X00566280D01*
X00563740Y00323600D01*
X00566280Y00326140D01*
X00563740D01*
X00561200Y00328680D01*
X00558660Y00326140D01*
X00556120D01*
X00558660Y00323600D01*
X00556120Y00321060D01*
X00558660D01*
X00561200Y00318520D01*
Y00293120D02*
X00563740Y00295660D01*
X00566280D01*
X00563740Y00298200D01*
X00566280Y00300740D01*
X00563740D01*
X00561200Y00303280D01*
X00558660Y00300740D01*
X00556120D01*
X00558660Y00298200D01*
X00556120Y00295660D01*
X00558660D01*
X00561200Y00293120D01*
Y00267720D02*
X00563740Y00270260D01*
X00566280D01*
X00563740Y00272800D01*
X00566280Y00275340D01*
X00563740D01*
X00561200Y00277880D01*
X00558660Y00275340D01*
X00556120D01*
X00558660Y00272800D01*
X00556120Y00270260D01*
X00558660D01*
X00561200Y00267720D01*
Y00242320D02*
X00563740Y00244860D01*
X00566280D01*
X00563740Y00247400D01*
X00566280Y00249940D01*
X00563740D01*
X00561200Y00252480D01*
X00558660Y00249940D01*
X00556120D01*
X00558660Y00247400D01*
X00556120Y00244860D01*
X00558660D01*
X00561200Y00242320D01*
Y00216920D02*
X00563740Y00219460D01*
X00566280D01*
X00563740Y00222000D01*
X00566280Y00224540D01*
X00563740D01*
X00561200Y00227080D01*
X00558660Y00224540D01*
X00556120D01*
X00558660Y00222000D01*
X00556120Y00219460D01*
X00558660D01*
X00561200Y00216920D01*
Y00191520D02*
X00563740Y00194060D01*
X00566280D01*
X00563740Y00196600D01*
X00566280Y00199140D01*
X00563740D01*
X00561200Y00201680D01*
X00558660Y00199140D01*
X00556120D01*
X00558660Y00196600D01*
X00556120Y00194060D01*
X00558660D01*
X00561200Y00191520D01*
Y00166120D02*
X00563740Y00168660D01*
X00566280D01*
X00563740Y00171200D01*
X00566280Y00173740D01*
X00563740D01*
X00561200Y00176280D01*
X00558660Y00173740D01*
X00556120D01*
X00558660Y00171200D01*
X00556120Y00168660D01*
X00558660D01*
X00561200Y00166120D01*
X00408800D02*
X00411340Y00168660D01*
X00413880D01*
X00411340Y00171200D01*
X00413880Y00173740D01*
X00411340D01*
X00408800Y00176280D01*
X00406260Y00173740D01*
X00403720D01*
X00406260Y00171200D01*
X00403720Y00168660D01*
X00406260D01*
X00408800Y00166120D01*
Y00191520D02*
X00411340Y00194060D01*
X00413880D01*
X00411340Y00196600D01*
X00413880Y00199140D01*
X00411340D01*
X00408800Y00201680D01*
X00406260Y00199140D01*
X00403720D01*
X00406260Y00196600D01*
X00403720Y00194060D01*
X00406260D01*
X00408800Y00191520D01*
Y00216920D02*
X00411340Y00219460D01*
X00413880D01*
X00411340Y00222000D01*
X00413880Y00224540D01*
X00411340D01*
X00408800Y00227080D01*
X00406260Y00224540D01*
X00403720D01*
X00406260Y00222000D01*
X00403720Y00219460D01*
X00406260D01*
X00408800Y00216920D01*
Y00242320D02*
X00411340Y00244860D01*
X00413880D01*
X00411340Y00247400D01*
X00413880Y00249940D01*
X00411340D01*
X00408800Y00252480D01*
X00406260Y00249940D01*
X00403720D01*
X00406260Y00247400D01*
X00403720Y00244860D01*
X00406260D01*
X00408800Y00242320D01*
Y00267720D02*
X00411340Y00270260D01*
X00413880D01*
X00411340Y00272800D01*
X00413880Y00275340D01*
X00411340D01*
X00408800Y00277880D01*
X00406260Y00275340D01*
X00403720D01*
X00406260Y00272800D01*
X00403720Y00270260D01*
X00406260D01*
X00408800Y00267720D01*
Y00293120D02*
X00411340Y00295660D01*
X00413880D01*
X00411340Y00298200D01*
X00413880Y00300740D01*
X00411340D01*
X00408800Y00303280D01*
X00406260Y00300740D01*
X00403720D01*
X00406260Y00298200D01*
X00403720Y00295660D01*
X00406260D01*
X00408800Y00293120D01*
Y00318520D02*
X00411340Y00321060D01*
X00413880D01*
X00411340Y00323600D01*
X00413880Y00326140D01*
X00411340D01*
X00408800Y00328680D01*
X00406260Y00326140D01*
X00403720D01*
X00406260Y00323600D01*
X00403720Y00321060D01*
X00406260D01*
X00408800Y00318520D01*
Y00343920D02*
X00411340Y00346460D01*
X00413880D01*
X00411340Y00349000D01*
X00413880Y00351540D01*
X00411340D01*
X00408800Y00354080D01*
X00406260Y00351540D01*
X00403720D01*
X00406260Y00349000D01*
X00403720Y00346460D01*
X00406260D01*
X00408800Y00343920D01*
X00366278Y00077878D02*
X00368818Y00082958D01*
X00366278Y00088038D01*
X00371358Y00085498D01*
X00376438Y00088038D01*
X00373898Y00082958D01*
X00376438Y00077878D01*
X00371358Y00080418D01*
X00366278Y00077878D01*
X00392896Y00056896D02*
X00395436Y00061976D01*
X00392896Y00067056D01*
X00397976Y00064516D01*
X00403056Y00067056D01*
X00400516Y00061976D01*
X00403056Y00056896D01*
X00397976Y00059436D01*
X00392896Y00056896D01*
X00503920Y00076708D02*
X00506460Y00081788D01*
X00503920Y00086868D01*
X00509000Y00084328D01*
X00514080Y00086868D01*
X00511540Y00081788D01*
X00514080Y00076708D01*
X00509000Y00079248D01*
X00503920Y00076708D01*
X00364490Y00331470D02*
X00367030Y00336550D01*
X00364490Y00341630D01*
X00369570Y00339090D01*
X00374650Y00341630D01*
X00372110Y00336550D01*
X00374650Y00331470D01*
X00369570Y00334010D01*
X00364490Y00331470D01*
D36*
X00635080Y00360000D02*
G03*
X00635080Y00360000I-00005080J00000000D01*
G01*
Y00020000D02*
G03*
X00635080Y00020000I-00005080J00000000D01*
G01*
X00025080D02*
G03*
X00025080Y00020000I-00005080J00000000D01*
G01*
Y00360000D02*
G03*
X00025080Y00360000I-00005080J00000000D01*
G01*
X00065080Y00325000D02*
G03*
X00065080Y00325000I-00005080J00000000D01*
G01*
X00285080D02*
G03*
X00285080Y00325000I-00005080J00000000D01*
G01*
Y00105000D02*
G03*
X00285080Y00105000I-00005080J00000000D01*
G01*
X00065080D02*
G03*
X00065080Y00105000I-00005080J00000000D01*
G01*
M02*
