M48
;Layer_Color=9474304
;FILE_FORMAT=4:4
METRIC
;TYPE=PLATED
T01F00S00C0.7112
T02F00S00C0.8890
T03F00S00C1.0000
T04F00S00C1.2700
T05F00S00C2.0000
%
T01
X00625358Y00336958
X00651976Y00315976
X00763000Y00335788
X00623570Y00590550
T02
X00854000Y00329000
Y00354000
T03
X00411300Y00584000
X00436700
X00462100
X00385900
T04
X00815200Y00425200
Y00450600
Y00476000
Y00501400
Y00526800
Y00552200
Y00577600
Y00603000
X00662800
Y00577600
Y00552200
Y00526800
Y00501400
Y00476000
Y00450600
Y00425200
T05
X00274000Y00274000
X00314000Y00359000
X00534000
X00884000Y00274000
Y00614000
X00534000Y00579000
X00314000
X00274000Y00614000
M30
