M48
;Layer_Color=9474304
;FILE_FORMAT=4:4
METRIC,LZ
;TYPE=PLATED
T01F00S00C0.7112
T02F00S00C0.8890
T03F00S00C1.0000
T04F00S00C1.2700
T05F00S00C2.0000
%
T01
X0032Y00125
X00397976Y00061976
X00469Y00121158
X00519Y00154401
X0036957Y0033655
T02
X006Y00075
Y001
T03
X001573Y0033
X001827
X002081
X001319
T04
X005612Y001712
Y001966
Y00222
Y002474
Y002728
Y002982
Y003236
Y00349
X004088
Y003236
Y002982
Y002728
Y002474
Y00222
Y001966
Y001712
T05
X00025Y00025
X0006Y00105
X0028
X00625Y00025
Y00355
X0028Y00325
X0006
X00025Y00355
M30
